{"title":"Legend of the Guardians-The Owls of Ga Hoole-AC3 2010 TBS","uid":6014414,"size":1464129563,"categoryP":"video","categoryS":"movies","magnet":"?xt=urn:btih:489380cc579af244291191fcd47c44c40450ce03&amp;dn=Legend+of+the+Guardians-The+Owls+of+Ga+Hoole-AC3+2010+TBS&amp;tr=udp%3A%2F%2Ftracker.openbittorrent.com%3A80&amp;tr=udp%3A%2F%2Fopen.demonii.com%3A1337&amp;tr=udp%3A%2F%2Ftracker.coppersurfer.tk%3A6969&amp;tr=udp%3A%2F%2Fexodus.desync.com%3A6969","seeders":0,"leechers":1,"uploader":"FatFreddy30","files":-1,"time":1291576037,"description":"[img]http://img152.imageshack.us/img152/2965/legendoftheguardians.jpg[/img]\n\nWhen a young owl is abducted by an evil Owl army, he must escape with newfound friends to seek out the legendary Guardians to stop the menace.\n &lt;a href=&quot;\nhttp://www.imdb.com/title/tt1219342/&quot; rel=&quot;nofollow&quot; target=&quot;_NEW&quot;&gt;\nhttp://www.imdb.com/title/tt1219342/&lt;/a&gt;\n\nSubs: Dutch (srt).\n\n\nSoren, een jonge uil, wordt gekidnapt door de uilen van St. Aggie's, een weeshuis waar jonge uilen gehersenspoeld worden tot meedogenloze soldaten. Soren en een paar andere uilen weten uit het weeshuis te ontsnappen en vluchten naar het eiland 'Ga'Hoole', om een wijze groep uilen bij te staan in hun strijd tegen de soldaten van St. Aggie's.\n &lt;a href=&quot;\nhttp://www.moviemeter.nl/film/64306&quot; rel=&quot;nofollow&quot; target=&quot;_NEW&quot;&gt;\nhttp://www.moviemeter.nl/film/64306&lt;/a&gt;\n\nOndertitels: Nederlands (srt).\n\nGeneral\nComplete name                    : Legend of the Guardians-The Owls of Ga Hoole-AC3 2010 TBS\\Legend of the Guardians-The Owls of Ga Hoole-AC3 2010.avi\nFormat                           : AVI\nFormat/Info                      : Audio Video Interleave\nFile size                        : 1.36 GiB\nDuration                         : 1h 36mn\nOverall bit rate                 : 2 016 Kbps\nWriting application              : VirtualDubMod 1.5.4.1 (build 2178/release)\nWriting library                  : VirtualDubMod build 2178/release\n\nVideo\nID                               : 0\nFormat                           : MPEG-4 Visual\nFormat profile                   : Simple@L3\nFormat settings, BVOP            : No\nFormat settings, QPel            : No\nFormat settings, GMC             : No warppoints\nFormat settings, Matrix          : Default (H.263)\nCodec ID                         : XVID\nCodec ID/Hint                    : XviD\nDuration                         : 1h 36mn\nBit rate                         : 1 622 Kbps\nWidth                            : 720 pixels\nHeight                           : 304 pixels\nDisplay aspect ratio             : 2.35:1\nFrame rate                       : 23.976 fps\nResolution                       : 8 bits\nColorimetry                      : 4:2:0\nScan type                        : Progressive\nBits/(Pixel*Frame)               : 0.309\nStream size                      : 1.10 GiB (80%)\nWriting library                  : XviD 1.1.2 (UTC 2006-11-01)\n\nAudio\nID                               : 1\nFormat                           : AC-3\nFormat/Info                      : Audio Coding 3\nCodec ID                         : 2000\nDuration                         : 1h 36mn\nBit rate mode                    : Constant\nBit rate                         : 384 Kbps\nChannel(s)                       : 6 channels\nChannel positions                : Front: L C R, Surround: L R, LFE\nSampling rate                    : 48.0 KHz\nStream size                      : 266 MiB (19%)\nAlignment                        : Split accross interleaves\nInterleave, duration             : 42 ms (1.00 video frame)\nInterleave, preload duration     : 500 ms\n\nThanks to Just4fun-Team.\n\nBlackbeard  TBS.","torrent":{"xt":"urn:btih:489380cc579af244291191fcd47c44c40450ce03","amp;dn":"Legend+of+the+Guardians-The+Owls+of+Ga+Hoole-AC3+2010+TBS","amp;tr":["udp%3A%2F%2Ftracker.openbittorrent.com%3A80","udp%3A%2F%2Fopen.demonii.com%3A1337","udp%3A%2F%2Ftracker.coppersurfer.tk%3A6969","udp%3A%2F%2Fexodus.desync.com%3A6969"],"infoHash":"489380cc579af244291191fcd47c44c40450ce03","infoHashBuffer":{"type":"Buffer","data":[72,147,128,204,87,154,242,68,41,17,145,252,212,124,68,196,4,80,206,3]},"announce":[],"urlList":[]}}